<svg xmlns="http://www.w3.org/2000/svg" xmlns:xlink="http://www.w3.org/1999/xlink" viewBox="0 0 178.27 194.01"><defs><style>.cls-1{fill:#edd9c3;}.cls-2{clip-path:url(#clip-path);}.cls-3{fill:#456fad;}.cls-4{fill:#092342;}</style><clipPath id="clip-path"><path class="cls-1" d="M178.27,89A89.14,89.14,0,1,1,89.13,0,89.05,89.05,0,0,1,178.27,89Z"/></clipPath></defs><g id="Слой_2" data-name="Слой 2"><g id="OBJECTS"><path class="cls-1" d="M178.27,89A89.14,89.14,0,1,1,89.13,0,89.05,89.05,0,0,1,178.27,89Z"/><g class="cls-2"><path class="cls-3" d="M97,137.29a8.84,8.84,0,0,1-2.42,1.3A11.94,11.94,0,0,0,97,137.29Z"/><path class="cls-4" d="M13.06,186.61c.39-2.54,6.13-34.63,7-37.6s1.35-5.65,3.92-7.31,12.86-6.1,20.17-9,12.82-5.15,14.19-7.84c-.61.88-.19,4.41.21,7.63s3.05,18.64,4.76,24.59,9.77,31.61,14.24,36.79l-65,.06A70.39,70.39,0,0,1,13.06,186.61Z"/><path class="cls-4" d="M81,137.31c-10.33-6.94-16-20.76-16-20.76L63.85,108c-5.35-8.69-6.3-14.8-6.3-14.8a17.43,17.43,0,0,1-4-2.4C49,87.3,46.89,76.83,51.81,73.62c1.68-1.09,4-1.61,4.62.95A36.93,36.93,0,0,1,55.92,70c-.37-4-.67-7.92-.88-11.88C54.53,48.66,60,23,88.6,23c18.81,0,27.61,9.75,30.54,16s3.18,13.25,3.44,19.53a122.69,122.69,0,0,1-1,16.1,2.2,2.2,0,0,1,2.36-1.78c7.37,1.35,5.22,13.19,1.76,17.51a7.5,7.5,0,0,1-5.1,2.85c-1.59,6.8-6.34,14.61-6.34,14.61-.53,16.18-15.47,28.46-17.26,29.53h0c1.08,10.62-3.3,13.46-3.3,13.46l6.48,43.06c4.47-5.28,12.48-30.8,14.19-36.74s4.36-21.36,4.76-24.59.82-6.75.21-7.63c1.37,2.69,6.89,4.94,14.2,7.84s17.59,7.35,20.16,9,3,4.32,3.93,7.31,6.64,35.06,7,37.6a70.39,70.39,0,0,1,.44,7.31l-64.92-.06,0,.11-11.12,0-11.34,0,6.4-43.22S79.92,147.92,81,137.31Z"/></g></g></g></svg>