<svg xmlns="http://www.w3.org/2000/svg" xmlns:xlink="http://www.w3.org/1999/xlink" viewBox="0 0 178.27 193.92"><defs><style>.cls-1{fill:#edd9c3;}.cls-2{clip-path:url(#clip-path);}.cls-3{fill:#092342;}</style><clipPath id="clip-path"><path class="cls-1" d="M178.27,89A89.14,89.14,0,1,1,89.13,0,89.05,89.05,0,0,1,178.27,89Z"/></clipPath></defs><g id="Слой_2" data-name="Слой 2"><g id="OBJECTS"><path class="cls-1" d="M178.27,89A89.14,89.14,0,1,1,89.13,0,89.05,89.05,0,0,1,178.27,89Z"/><g class="cls-2"><path class="cls-3" d="M89.67,15.57c-39.32,0-51.63,38-52.82,55C36,82.88,39.54,106,41.53,117.71a6.8,6.8,0,0,0,8.19,5.5c9.11-2,25.63-5.22,39.41-5.22Z"/><path class="cls-3" d="M89.67,15.57c39.32,0,50.55,38,51.74,55,.87,12.35-2.68,35.5-4.68,47.18a6.79,6.79,0,0,1-8.18,5.5c-9.12-2-25.63-5.22-39.42-5.22Z"/><path class="cls-3" d="M92.73,193.9l13.32,0,59.91.06a70.39,70.39,0,0,0-.44-7.31c-.39-2.54-3.88-25.26-8.81-35-4.05-8-14.86-14.79-19.77-17.6a4.19,4.19,0,0,0-4.67.35L92.82,165.35a5.72,5.72,0,0,1-7.06,0L45,133.37a1.84,1.84,0,0,0-1.87-.26c-7.17,3-16.22,8.56-21.3,18.54-4.93,9.7-8.42,32.42-8.81,35a70.39,70.39,0,0,0-.44,7.31l59.94-.06,13.34,0v0h6.83Z"/><path class="cls-1" d="M60.56,81.05c5.36,16.47,16.56,26.81,28.57,26.81s26.57-11.74,30.28-26.81c0,0,4.72,3.2,8-.51s5.62-17.61-.51-17.74c-2.56,0-5.49,9.7-8,9.7S96,61.14,96.81,43.65c0,0-7.28,22.85-24,30.77,0,0,13-12,14.91-31C87.72,43.4,83,67.43,60.56,81.05Z"/></g></g></g></svg>